<svg width="46" height="49" viewBox="0 0 46 49" fill="none" xmlns="http://www.w3.org/2000/svg">
<path d="M24.6032 23.5619C19.8885 25.433 20.4218 30.2927 17.6094 35.9254C13.484 44.1891 16.581 48.9053 20.8407 48.5567C25.1008 48.2081 26.7932 42.6399 31.0201 41.1837C31.033 41.1792 31.0464 41.1748 31.0592 41.1703C31.0721 41.1654 31.085 41.1599 31.0979 41.155C35.2644 39.5334 40.1553 42.6879 43.6307 40.1998C47.106 37.7118 46.4203 32.1113 37.9307 28.4736C32.1441 25.9944 29.41 21.9418 24.6032 23.5619Z" fill="#F69946"/>
<path d="M11.8159 24.2461C15.7765 26.901 17.6001 31.123 15.8884 33.676C14.1772 36.2294 9.57888 36.1472 5.6178 33.4927C1.65723 30.8378 -0.166356 26.6163 1.54532 24.0629C3.2575 21.509 7.85532 21.5912 11.8159 24.2461Z" fill="#F69946"/>
<path d="M34.7943 15.8197C33.4886 20.4056 34.8265 24.8054 37.7829 25.6471C40.7393 26.4888 44.1944 23.4537 45.5001 18.8677C46.8057 14.2818 45.4674 9.88205 42.5114 9.04032C39.555 8.1986 36.0999 11.2343 34.7943 15.8197Z" fill="#F69946"/>
<path d="M18.7311 11.3773C21.2633 15.7216 21.0454 20.567 18.2449 22.1989C15.4445 23.8314 11.1214 21.633 8.58932 17.2887C6.0572 12.9439 6.27556 8.09949 9.07603 6.46703C11.876 4.83458 16.199 7.03297 18.7311 11.3773Z" fill="#F69946"/>
<path d="M21.1979 10.4725C22.0742 15.4238 25.3728 18.9799 28.5645 18.4144C31.7566 17.8495 33.6336 13.3774 32.7568 8.42609C31.8799 3.47475 28.5818 -0.0813015 25.3897 0.484142C22.198 1.04958 20.3215 5.52164 21.1979 10.4725Z" fill="#F69946"/>
</svg>
