<svg width="53" height="56" viewBox="0 0 53 56" fill="none" xmlns="http://www.w3.org/2000/svg">
<path d="M25.5615 26.9792C20.6421 24.6183 17.1902 28.5855 10.6859 30.4731C1.14312 33.2415 -0.324618 39.1315 3.05922 42.2446C6.44307 45.3577 12.0797 42.6321 16.3154 44.9102C16.3284 44.9173 16.3419 44.9244 16.3549 44.9315C16.3684 44.9381 16.3819 44.9446 16.3954 44.9512C20.7172 47.0616 21.7925 53.2294 26.2956 54.161C30.7981 55.093 34.7248 50.4637 31.4051 41.0985C29.1415 34.7153 30.3496 29.5963 25.5615 26.9792Z" fill="#3A3330"/>
<path d="M15.6944 17.3734C16.486 22.4415 14.4792 26.9633 11.2122 27.4738C7.94515 27.9837 4.65471 24.2893 3.86316 19.2213C3.0716 14.1532 5.07835 9.63128 8.3454 9.12084C11.6124 8.61093 14.9023 12.3058 15.6944 17.3734Z" fill="#3A3330"/>
<path d="M39.1221 29.3885C34.5444 31.7025 32.0431 35.9712 33.535 38.9222C35.0269 41.8732 39.947 42.3898 44.5247 40.0758C49.1024 37.7614 51.6036 33.4931 50.1117 30.5421C48.6198 27.5906 43.6998 27.0746 39.1221 29.3885Z" fill="#3A3330"/>
<path d="M30.9137 13.4495C29.3274 18.6212 25.3385 21.9842 22.0046 20.9614C18.6707 19.9386 17.2542 14.9173 18.8406 9.74551C20.4269 4.57377 24.4158 1.21076 27.7492 2.23354C31.0831 3.25687 32.4995 8.27824 30.9137 13.4495Z" fill="#3A3330"/>
<path d="M33.4289 14.7394C30.1544 19.0456 29.7506 24.2473 32.5266 26.3578C35.3021 28.4682 40.207 26.6888 43.481 22.3826C46.7549 18.077 47.1593 12.8748 44.3832 10.7643C41.6077 8.65443 36.7033 10.4338 33.4289 14.7394Z" fill="#3A3330"/>
</svg>
