<svg width="179" height="37" viewBox="0 0 179 37" fill="none" xmlns="http://www.w3.org/2000/svg">
<path d="M18.7063 18.1007C15.6822 18.0752 14.8853 20.8789 12.067 23.3581C7.93257 26.9955 8.58379 30.2957 11.0146 31.0599C13.4457 31.8242 15.6309 29.129 18.2925 29.2741C18.3006 29.2746 18.309 29.2751 18.3171 29.2755C18.3253 29.2757 18.3336 29.2756 18.3419 29.2757C21.0072 29.316 22.9998 32.1566 25.478 31.5631C27.9562 30.9695 28.8353 27.7225 24.9637 23.8067C22.3246 21.1379 21.7249 18.2856 18.7063 18.1007Z" fill="#F9F4EA"/>
<path d="M11.4916 15.6068C13.0827 17.9626 13.1416 20.7039 11.6229 21.7294C10.1043 22.7553 7.58322 21.6771 5.99177 19.3215C4.4007 16.9657 4.3417 14.2247 5.86052 13.1989C7.37971 12.173 9.90054 13.2511 11.4916 15.6068Z" fill="#F9F4EA"/>
<path d="M26.0757 16.1138C24.3247 18.3533 24.0754 21.0837 25.5191 22.2126C26.9628 23.3414 29.5527 22.4412 31.3038 20.2017C33.0548 17.9622 33.3039 15.2317 31.8604 14.103C30.4167 12.9741 27.8267 13.8746 26.0757 16.1138Z" fill="#F9F4EA"/>
<path d="M18.2007 10.0526C18.6234 13.0206 17.4148 15.6476 15.5016 15.92C13.5883 16.1926 11.6946 14.0075 11.2718 11.0395C10.8492 8.07127 12.0578 5.44484 13.9711 5.17225C15.8842 4.89954 17.7779 7.0846 18.2007 10.0526Z" fill="#F9F4EA"/>
<path d="M19.7657 10.1072C19.1377 13.0385 20.1607 15.7433 22.0504 16.1479C23.9402 16.5528 25.9813 14.5045 26.6091 11.5731C27.2368 8.64158 26.214 5.93691 24.3241 5.53225C22.4344 5.12771 20.3936 7.17607 19.7657 10.1072Z" fill="#F9F4EA"/>
<path d="M56.2484 10.1554C54.9832 8.84981 53.1359 8.18774 50.7556 8.18774H43.1689V29.0976H47.3776V12.1821H50.5141C51.5518 12.1821 52.3825 12.4286 52.9134 12.8978C53.4391 13.3563 53.7045 14.056 53.7045 14.97C53.7045 15.8547 53.4471 16.541 52.9403 17.0101C52.3451 17.5597 51.4042 17.8385 50.139 17.8385H49.4321V21.8327H50.3535C51.4416 21.8327 52.4469 21.7015 53.3369 21.4441C54.2862 21.1679 55.109 20.7471 55.7874 20.1921C56.5029 19.6051 57.0551 18.8705 57.4278 18.0074C57.8034 17.1361 57.9935 16.1336 57.9935 15.0236C57.9935 13.0185 57.3904 11.335 56.2484 10.1554Z" fill="#F69946"/>
<path d="M67.5724 28.3743C66.3122 27.8407 65.1812 27.0794 64.2106 26.109C63.2402 25.1385 62.4789 24.0072 61.9454 22.7473C61.3931 21.4417 61.1143 20.0558 61.1143 18.6297C61.1143 17.2036 61.3931 15.8175 61.9454 14.5121C62.4789 13.2521 63.2402 12.1207 64.2106 11.1503C65.1811 10.1799 66.3122 9.41861 67.5724 8.88508C68.8779 8.33281 70.2639 8.05396 71.6898 8.05396C73.1161 8.05396 74.502 8.33281 75.8076 8.88508C77.0677 9.41862 78.1988 10.1799 79.1692 11.1503C80.1399 12.1207 80.9012 13.2521 81.4346 14.5121C81.9868 15.8175 82.2657 17.2036 82.2657 18.6297C82.2657 20.0558 81.9868 21.4417 81.4346 22.7473C80.9012 24.0072 80.1399 25.1385 79.1692 26.109C78.1988 27.0794 77.0677 27.8407 75.8076 28.3743C74.502 28.9265 73.1161 29.2052 71.6898 29.2052C70.2639 29.2052 68.8779 28.9265 67.5724 28.3743ZM67.1862 14.1287C65.9825 15.3323 65.3204 16.93 65.3204 18.6324C65.3204 20.3346 65.9825 21.9323 67.1862 23.1359C68.39 24.3397 69.9875 25.0018 71.6898 25.0018C73.3924 25.0018 74.9899 24.3397 76.1937 23.1359C77.3971 21.9323 78.0595 20.3346 78.0595 18.6324C78.0595 16.93 77.3971 15.3323 76.1937 14.1287C74.9899 12.9251 73.3895 12.2628 71.6898 12.2628C69.9905 12.2628 68.39 12.9251 67.1862 14.1287Z" fill="#F69946"/>
<path d="M86.4456 26.012L85.8799 25.4059L88.6492 22.0927L89.3647 22.9907C89.925 23.6931 90.6568 24.2694 91.4774 24.6555C92.2493 25.02 93.0829 25.2103 93.8872 25.2103C94.8364 25.2103 95.6457 25.0013 96.166 24.6233C96.635 24.2828 96.863 23.8271 96.863 23.2267C96.863 22.5724 96.6619 22.1678 96.15 21.7844C95.5599 21.3447 94.6056 20.9854 93.4985 20.5673C93.4047 20.5324 93.3084 20.495 93.2091 20.4574C91.689 19.8918 90.2282 19.3101 89.0564 18.3772C88.3756 17.8357 87.8717 17.2378 87.515 16.5515C87.1184 15.7902 86.9173 14.9244 86.9173 13.978C86.9173 12.3294 87.6305 10.804 88.9226 9.68333C90.1773 8.5977 91.8632 8 93.673 8C96.0104 8 98.2918 8.84166 100.267 10.4314L100.981 11.0078L98.4096 14.3534L97.6592 13.7368C96.3376 12.6457 94.8844 12.0211 93.673 12.0211C92.547 12.0211 91.228 12.509 91.2065 13.8842C91.1986 14.4981 91.4934 14.8331 91.941 15.1469C92.5819 15.5972 93.6003 15.9858 94.6783 16.3986L94.6888 16.4014C94.8579 16.4685 95.0266 16.5355 95.1956 16.5997C96.7208 17.1976 98.1631 17.7606 99.2567 18.6613C100.549 19.7282 101.179 21.1329 101.179 22.9585C101.179 23.9478 100.967 24.8673 100.549 25.6928C100.155 26.465 99.5919 27.138 98.8681 27.6928C97.5494 28.7006 95.7719 29.2583 93.8606 29.2583C91.0349 29.2583 88.4025 28.1058 86.4456 26.012Z" fill="#F69946"/>
<path d="M117.711 21.1093H109.641V29.098H105.433V8.18799H109.641V17.1149H117.711V8.18799H121.919V29.098H117.711V21.1093Z" fill="#F69946"/>
<path d="M139.276 10.1556C138.01 8.85005 136.163 8.18799 133.783 8.18799H126.196V29.0978H130.405V12.1824H133.541C134.579 12.1824 135.41 12.4289 135.941 12.898C136.466 13.3565 136.732 14.0562 136.732 14.9702C136.732 15.855 136.474 16.5412 135.968 17.0104C135.372 17.5599 134.432 17.8388 133.166 17.8388H132.459V21.833H133.381C134.469 21.833 135.474 21.7017 136.364 21.4443C137.314 21.1682 138.136 20.7473 138.815 20.1924C139.53 19.6054 140.082 18.8708 140.455 18.0077C140.831 17.1364 141.021 16.1338 141.021 15.0238C141.021 13.0187 140.418 11.3352 139.276 10.1556Z" fill="#F69946"/>
<path d="M145.081 29.0978H158.619V25.1836H145.081V29.0978ZM145.081 20.68H158.619V16.6857H145.081V20.68ZM145.081 8.18774V12.1821H158.619V8.18774H145.081Z" fill="#F69946"/>
<path d="M168.572 12.1821H162.889V8.18774H178.544V12.1821H172.781V29.0978H168.572V12.1821Z" fill="#F69946"/>
</svg>
