<?xml version="1.0" encoding="UTF-8"?>
<!DOCTYPE svg PUBLIC "-//W3C//DTD SVG 1.1//EN" "http://www.w3.org/Graphics/SVG/1.1/DTD/svg11.dtd">
<!-- Creator: CorelDRAW X8 -->
<svg xmlns="http://www.w3.org/2000/svg" xml:space="preserve" width="4576px" height="742px" version="1.1" style="shape-rendering:geometricPrecision; text-rendering:geometricPrecision; image-rendering:optimizeQuality; fill-rule:evenodd; clip-rule:evenodd"
viewBox="0 0 3722 603"
 xmlns:xlink="http://www.w3.org/1999/xlink">
 <defs>
  <style type="text/css">
   <![CDATA[
    .fil0 {fill:#12110C;fill-rule:nonzero}
   ]]>
  </style>
 </defs>
 <g id="Camada_x0020_1">
  <metadata id="CorelCorpID_0Corel-Layer"/>
  <path class="fil0" d="M52 547l33 0 33 0 33 0 33 0c7,0 14,0 21,0 6,0 13,-1 19,-1 6,0 12,-1 18,-1 6,-1 11,-1 17,-2 5,0 10,-1 15,-2 4,-1 9,-2 13,-3 5,-2 9,-3 13,-5 4,-1 7,-3 11,-5 3,-2 6,-4 9,-6 3,-2 6,-5 9,-7 2,-3 5,-6 7,-9 2,-3 4,-6 6,-10 1,-3 3,-7 4,-11 2,-4 3,-9 3,-13 1,-5 2,-10 2,-15 1,-5 1,-10 1,-16 0,-6 0,-11 -1,-16 0,-5 -1,-9 -2,-14 -1,-4 -2,-8 -3,-12 -2,-4 -4,-8 -5,-11 -2,-4 -4,-7 -7,-10 -2,-3 -5,-5 -7,-8 -3,-3 -6,-5 -9,-7 -3,-2 -7,-4 -10,-6 -4,-2 -8,-4 -11,-5 -4,-2 -8,-3 -13,-5 -4,-1 -8,-2 -13,-3 -5,-1 -9,-2 -14,-2 -5,-1 -10,-2 -16,-2 -5,-1 -10,-1 -16,-1 -5,-1 -11,-1 -17,-1 -6,0 -12,0 -18,0l-34 0 -35 0 -35 0 -34 0 0 52 0 52 0 53 0 52zm0 -252l33 0 33 0 32 0 33 0c7,0 14,0 20,0 6,0 12,-1 18,-1 5,-1 11,-2 16,-2 5,-1 10,-2 14,-3 5,-1 9,-3 13,-4 4,-1 8,-3 12,-4 4,-2 7,-4 10,-6 4,-2 7,-4 10,-6 2,-2 5,-4 7,-6 3,-3 5,-5 7,-8 2,-3 4,-5 5,-8 2,-3 3,-6 5,-9 1,-3 2,-7 3,-10 1,-3 1,-7 2,-10 1,-4 1,-7 1,-11 1,-4 1,-8 1,-12 0,-4 0,-8 -1,-12 0,-4 -1,-7 -1,-11 -1,-3 -2,-7 -3,-10 -1,-3 -2,-6 -4,-9 -1,-3 -3,-6 -4,-8 -2,-3 -4,-5 -6,-8 -3,-2 -5,-4 -8,-6 -2,-2 -5,-4 -8,-6 -3,-2 -7,-3 -10,-5 -4,-1 -7,-3 -11,-4 -4,-1 -9,-2 -13,-3 -4,-1 -9,-2 -14,-3 -5,-1 -10,-2 -16,-2 -5,-1 -11,-1 -17,-2 -6,0 -12,0 -19,-1 -6,0 -13,0 -20,0l-30 0 -30 0 -30 0 -30 0 0 48 0 47 0 48 0 47zm-52 294l0 -131 0 -132 0 -132 0 -131 50 0 49 0 50 0 50 0c8,0 15,0 23,0 7,1 14,1 21,2 7,1 14,2 20,3 6,1 12,3 18,4 6,2 11,3 16,5 6,2 11,4 15,7 5,2 9,4 13,7 5,2 9,5 12,8 4,3 7,6 10,9 3,4 6,7 9,10 3,4 5,8 7,11 2,4 4,8 6,12 1,4 3,9 4,13 1,4 2,8 3,13 1,4 2,9 2,14 1,4 1,9 1,14 0,5 0,9 -1,13 0,5 -1,9 -1,13 -1,4 -2,8 -3,11 0,4 -2,8 -3,11 -1,3 -3,6 -4,10 -1,3 -3,6 -5,8 -1,3 -3,6 -5,8 -2,3 -4,5 -6,8 -2,2 -4,4 -6,6 -2,2 -4,4 -7,6 -2,1 -5,3 -7,5 -2,1 -5,3 -8,4 -2,1 -5,2 -7,3 -3,1 -6,2 -9,3 -2,1 -5,2 -8,3 -2,0 -5,1 -8,1l0 1 0 0 0 1 0 0c10,1 18,3 27,6 8,2 16,5 23,9 7,3 13,7 19,12 6,5 11,10 16,16 5,6 9,12 12,19 4,6 7,13 9,21 2,7 4,15 5,23 1,8 2,16 2,25 0,7 0,13 -1,20 0,6 -1,12 -2,18 -1,5 -3,11 -5,16 -1,6 -3,11 -5,15 -3,5 -5,10 -8,14 -2,4 -5,8 -8,12 -3,4 -7,8 -10,11 -4,3 -7,6 -11,9 -4,3 -9,6 -13,9 -4,2 -9,4 -13,7 -5,2 -10,4 -15,5 -5,2 -11,3 -16,5 -6,1 -12,2 -17,3 -6,1 -12,2 -18,2 -6,1 -12,2 -18,2 -7,0 -13,0 -19,0l-57 0 -56 0 -56 0 -56 0z"/>
  <polygon class="fil0" points="520,63 533,63 546,63 559,63 572,63 572,194 572,326 572,458 572,589 559,589 546,589 533,589 520,589 520,458 520,326 520,194 "/>
  <path class="fil0" d="M942 561c8,0 17,-1 25,-1 9,-1 17,-2 24,-4 8,-2 15,-4 22,-6 7,-3 14,-5 21,-9 6,-3 12,-6 18,-10 6,-4 11,-8 17,-12 5,-4 10,-9 15,-14 4,-5 9,-10 13,-15 4,-6 8,-11 12,-17 3,-6 6,-12 10,-18 3,-6 5,-13 8,-19 2,-7 5,-14 7,-21 2,-7 3,-14 5,-21 1,-7 3,-15 3,-22 1,-8 2,-15 3,-22 0,-8 0,-16 0,-23 0,-9 0,-18 0,-27 -1,-9 -2,-17 -3,-25 -1,-9 -3,-16 -4,-24 -2,-8 -4,-15 -7,-23 -2,-7 -5,-14 -8,-21 -2,-6 -6,-13 -9,-19 -3,-6 -7,-12 -11,-18 -4,-5 -8,-11 -13,-16 -4,-5 -9,-10 -14,-14 -5,-5 -10,-9 -15,-13 -6,-4 -11,-8 -17,-11 -6,-3 -12,-6 -18,-9 -7,-2 -13,-5 -20,-7 -7,-2 -14,-3 -21,-5 -7,-1 -14,-2 -22,-3 -7,-1 -15,-1 -23,-1 -9,0 -17,1 -25,1 -9,1 -17,2 -24,4 -8,2 -15,4 -22,6 -7,3 -14,6 -20,9 -7,3 -13,7 -19,11 -5,3 -11,7 -16,12 -6,4 -11,9 -15,14 -5,5 -9,10 -14,15 -4,6 -8,11 -11,17 -4,6 -7,12 -10,18 -3,6 -6,13 -9,20 -2,6 -4,13 -6,20 -2,7 -4,14 -5,22 -2,7 -3,14 -4,22 -1,7 -2,14 -2,22 -1,7 -1,15 -1,23 0,8 0,15 1,23 0,7 1,15 2,22 1,8 2,15 4,22 1,8 3,15 5,22 2,7 4,14 6,21 3,6 6,13 9,19 3,6 6,12 10,18 3,6 7,11 11,17 5,5 9,10 14,15 4,5 9,9 15,13 5,5 11,9 16,12 6,4 12,8 19,11 6,3 13,6 20,8 7,2 15,4 22,6 8,2 16,3 24,4 9,0 18,1 27,1zm-257 -234c0,-10 0,-19 1,-29 1,-9 2,-18 3,-27 1,-9 3,-18 5,-27 2,-9 5,-17 7,-26 3,-8 6,-16 10,-24 3,-8 7,-15 11,-23 4,-7 8,-14 13,-21 5,-7 10,-13 15,-20 5,-6 11,-12 17,-18 6,-5 12,-11 19,-15 6,-5 13,-10 21,-14 7,-5 14,-9 22,-12 8,-4 16,-7 25,-10 8,-3 17,-5 26,-7 9,-2 19,-3 28,-4 10,-1 20,-1 31,-1 10,0 21,0 31,1 10,1 19,2 29,4 9,2 18,4 27,7 9,3 17,6 25,9 8,4 16,8 23,12 8,4 15,9 22,14 6,5 13,10 19,16 6,5 12,11 17,18 6,6 11,12 15,19 5,7 9,14 14,22 4,7 7,15 11,22 3,8 6,17 9,25 3,9 5,17 7,26 2,9 4,18 5,27 2,9 3,18 3,27 1,10 1,19 1,29 0,9 0,19 -1,28 0,9 -1,18 -3,27 -1,9 -3,18 -5,26 -2,9 -4,18 -7,26 -3,8 -6,16 -9,24 -4,8 -7,16 -11,23 -4,7 -9,14 -13,21 -5,7 -10,13 -16,20 -5,6 -11,12 -17,18 -6,5 -12,10 -19,15 -6,5 -13,10 -21,14 -7,5 -15,9 -23,12 -8,4 -16,7 -25,10 -8,3 -17,5 -27,7 -9,2 -19,3 -28,4 -10,1 -21,1 -31,1 -11,0 -21,0 -31,-1 -10,-1 -19,-2 -29,-4 -9,-2 -18,-4 -27,-7 -8,-3 -17,-6 -25,-10 -8,-3 -15,-7 -23,-12 -7,-4 -14,-9 -21,-14 -6,-5 -13,-10 -19,-15 -6,-6 -12,-12 -17,-18 -5,-7 -10,-13 -15,-20 -5,-7 -9,-14 -13,-21 -4,-7 -8,-15 -11,-23 -3,-8 -6,-16 -9,-24 -3,-8 -5,-17 -7,-26 -2,-8 -4,-17 -5,-26 -1,-9 -2,-18 -3,-27 -1,-9 -1,-19 -1,-28z"/>
  <polygon class="fil0" points="1288,589 1288,458 1288,326 1288,194 1288,63 1376,63 1465,63 1553,63 1642,63 1642,73 1642,84 1642,94 1642,105 1566,105 1491,105 1415,105 1339,105 1339,153 1339,200 1339,248 1339,295 1408,295 1477,295 1546,295 1614,295 1614,306 1614,316 1614,327 1614,338 1546,338 1477,338 1408,338 1339,338 1339,401 1339,464 1339,526 1339,589 1326,589 1313,589 1300,589 "/>
  <path class="fil0" d="M1923 308c5,0 9,0 14,-1 5,0 9,0 14,-1 4,0 9,-1 13,-2 4,0 9,-1 13,-2 4,-1 8,-2 12,-4 4,-1 7,-2 11,-4 3,-1 7,-3 10,-5 4,-2 7,-4 10,-6 3,-2 6,-4 9,-7 2,-2 5,-5 7,-7 3,-3 5,-6 7,-9 2,-3 4,-6 6,-9 2,-4 3,-7 5,-11 1,-3 2,-7 3,-11 1,-4 1,-8 2,-13 0,-4 1,-8 1,-13 0,-5 -1,-9 -1,-14 -1,-4 -1,-9 -2,-13 -1,-4 -2,-7 -4,-11 -1,-4 -3,-7 -5,-10 -1,-3 -3,-6 -6,-9 -2,-3 -4,-6 -7,-8 -2,-3 -5,-5 -7,-7 -3,-2 -6,-4 -9,-6 -3,-2 -7,-4 -10,-5 -3,-2 -7,-3 -10,-5 -4,-1 -8,-2 -11,-3 -4,-1 -8,-2 -12,-3 -4,0 -8,-1 -12,-1 -4,-1 -8,-2 -13,-2 -4,0 -8,-1 -12,-1 -4,0 -9,0 -13,0l-41 0 -42 0 -41 0 -41 0 0 51 0 50 0 51 0 51 40 0 41 0 40 0 41 0zm-162 42l0 60 0 60 0 60 0 59 -13 0 -13 0 -13 0 -13 0 0 -132 0 -131 0 -132 0 -131 54 0 54 0 54 0 53 0c16,0 30,0 43,2 14,1 26,3 38,6 11,2 22,6 32,10 9,4 18,9 26,14 8,6 15,12 21,19 6,7 11,15 15,24 4,9 7,18 9,29 2,10 3,22 3,34 0,8 0,16 -1,23 -1,8 -2,15 -4,22 -2,6 -4,12 -6,18 -3,6 -6,11 -10,16 -3,5 -7,9 -12,14 -4,4 -9,9 -15,13 -6,4 -12,8 -19,12 -7,4 -14,7 -22,11 4,1 8,2 12,4 3,2 7,4 10,6 3,1 6,4 9,6 3,2 5,4 7,7 3,3 5,5 7,8 2,3 4,6 5,8 2,3 4,6 5,10 1,3 3,6 4,9 1,3 2,7 3,10 1,4 2,7 3,10 0,4 1,7 1,11 1,4 1,7 2,11 0,4 0,7 1,11 0,3 0,7 0,10 1,4 1,7 1,11 0,3 0,7 0,10 0,5 1,10 1,15 0,4 0,9 0,13 1,4 1,8 1,12 0,3 1,7 1,10 0,3 1,6 1,9 0,3 1,6 1,9 1,3 1,5 1,8 1,2 1,4 2,6 0,2 1,4 1,6 1,2 1,4 2,5 0,2 1,3 1,5 1,1 1,2 2,4 1,1 1,2 2,3 1,1 2,2 2,3 1,1 2,1 3,2 1,1 1,2 2,2l0 1 0 1 0 1 0 2 -14 0 -14 0 -15 0 -14 0c-1,-2 -3,-4 -4,-7 -1,-3 -2,-5 -3,-8 -1,-3 -2,-7 -3,-10 -1,-4 -1,-7 -2,-11 0,-4 -1,-8 -1,-12 -1,-4 -1,-8 -2,-12 0,-4 -1,-8 -1,-13 0,-4 -1,-8 -1,-12 0,-5 -1,-9 -1,-13 0,-4 -1,-8 -1,-12 0,-5 0,-9 -1,-13 0,-4 0,-8 0,-12 0,-4 -1,-8 -1,-12 0,-3 0,-7 -1,-10 0,-3 -1,-6 -1,-9 0,-3 -1,-6 -1,-8 -1,-4 -2,-7 -3,-11 -1,-3 -2,-6 -3,-9 -2,-2 -3,-5 -5,-8 -1,-2 -3,-4 -4,-7 -2,-2 -4,-4 -6,-6 -2,-1 -4,-3 -6,-5 -2,-1 -4,-3 -6,-4 -2,-2 -5,-3 -7,-4 -3,-1 -5,-2 -8,-3 -2,-1 -5,-2 -8,-2 -2,-1 -5,-2 -8,-2 -3,-1 -6,-1 -9,-2 -3,0 -6,0 -9,-1 -3,0 -6,0 -9,0 -3,-1 -6,-1 -9,-1 -3,0 -6,0 -10,0l-40 0 -41 0 -41 0 -41 0z"/>
  <polygon class="fil0" points="2212,589 2212,458 2212,326 2212,194 2212,63 2303,63 2394,63 2486,63 2577,63 2577,73 2577,84 2577,94 2577,105 2499,105 2420,105 2342,105 2263,105 2263,153 2263,200 2263,248 2263,295 2334,295 2405,295 2476,295 2547,295 2547,306 2547,316 2547,327 2547,338 2476,338 2405,338 2334,338 2263,338 2263,390 2263,442 2263,495 2263,547 2344,547 2424,547 2505,547 2585,547 2585,558 2585,568 2585,579 2585,589 2492,589 2398,589 2305,589 "/>
  <path class="fil0" d="M2692 432c0,6 1,12 2,17 1,5 2,11 3,16 2,4 3,9 5,14 2,4 4,9 6,13 2,4 5,8 7,11 3,4 6,8 9,11 2,3 5,6 9,9 3,3 6,6 10,9 3,2 7,4 11,7 3,2 7,4 11,6 4,2 8,3 13,5 4,1 9,3 13,4 5,1 9,2 14,3 5,1 10,1 15,2 4,1 9,1 14,1 6,1 11,1 16,1 6,0 12,0 18,-1 5,0 11,-1 16,-1 5,-1 10,-2 15,-3 5,-1 10,-3 14,-4 5,-1 9,-3 13,-5 4,-1 8,-3 12,-5 3,-2 7,-4 10,-7 3,-2 6,-4 9,-7 3,-2 5,-5 8,-8 2,-2 4,-5 6,-8 2,-3 4,-6 6,-9 2,-3 3,-6 5,-10 1,-3 2,-6 3,-10 1,-3 2,-6 3,-10 0,-3 1,-7 1,-10 0,-4 1,-8 1,-11 0,-5 -1,-10 -1,-15 -1,-4 -2,-9 -3,-13 -1,-4 -3,-8 -5,-12 -1,-3 -3,-7 -6,-10 -2,-3 -5,-6 -8,-9 -2,-3 -5,-6 -9,-8 -3,-3 -6,-5 -10,-8 -3,-2 -7,-4 -11,-6 -4,-2 -8,-4 -12,-6 -4,-2 -8,-3 -13,-5 -4,-2 -9,-3 -13,-4 -5,-2 -10,-3 -15,-4 -5,-2 -10,-3 -15,-4 -5,-1 -11,-2 -16,-4 -5,-1 -10,-2 -15,-3 -5,-1 -11,-3 -16,-4 -5,-1 -11,-2 -16,-3 -5,-2 -10,-3 -15,-4 -5,-2 -11,-3 -16,-5 -5,-1 -10,-3 -15,-4 -5,-2 -10,-3 -14,-5 -5,-2 -10,-4 -14,-6 -5,-2 -9,-5 -13,-7 -4,-3 -8,-5 -12,-8 -4,-2 -8,-5 -11,-8 -4,-3 -7,-7 -10,-10 -4,-4 -7,-7 -9,-11 -3,-4 -6,-8 -8,-12 -3,-4 -5,-9 -6,-14 -2,-4 -4,-9 -5,-15 -1,-5 -2,-11 -3,-17 0,-5 -1,-12 -1,-18 0,-5 1,-9 1,-14 1,-4 1,-8 2,-13 1,-4 3,-9 4,-13 2,-4 3,-9 5,-13 2,-4 4,-8 7,-12 2,-4 5,-8 8,-12 3,-4 6,-7 9,-11 4,-3 7,-7 11,-10 4,-3 8,-7 13,-10 4,-2 9,-5 14,-8 4,-2 10,-5 15,-7 5,-3 11,-5 17,-7 6,-2 12,-3 18,-5 6,-1 13,-2 20,-3 6,-1 13,-2 20,-3 8,0 15,0 23,0 7,0 15,0 22,0 8,1 15,2 21,3 7,1 14,2 20,4 6,1 12,3 18,5 6,2 11,4 17,7 5,2 10,5 15,8 5,3 9,6 14,9 4,3 8,7 12,10 4,4 7,7 10,11 4,4 7,8 10,12 3,5 5,9 8,13 2,5 4,10 6,14 2,5 4,10 5,15 2,5 3,10 4,15 1,5 1,10 2,15 0,5 1,11 1,16l-13 0 -12 0 -13 0 -12 0c0,-5 0,-10 -1,-14 0,-5 -1,-10 -2,-14 -1,-4 -2,-8 -3,-12 -2,-4 -3,-8 -5,-12 -2,-4 -4,-7 -6,-10 -2,-4 -5,-7 -7,-10 -3,-3 -5,-6 -8,-8 -3,-3 -6,-5 -9,-8 -4,-2 -7,-4 -10,-6 -4,-2 -7,-4 -11,-6 -3,-2 -7,-3 -11,-5 -4,-1 -8,-2 -12,-3 -4,-1 -8,-2 -12,-3 -4,-1 -8,-2 -13,-2 -4,-1 -8,-1 -12,-1 -5,-1 -9,-1 -13,-1 -7,0 -13,0 -19,1 -6,0 -12,1 -18,2 -5,1 -11,2 -16,3 -5,1 -10,3 -14,5 -5,2 -9,3 -13,5 -4,2 -8,5 -11,7 -4,2 -7,5 -11,7 -3,3 -6,5 -8,8 -3,3 -5,6 -8,9 -2,3 -4,6 -6,9 -2,3 -3,6 -5,9 -1,4 -2,7 -3,10 -1,4 -2,7 -3,11 0,3 -1,7 -1,10 0,3 0,7 0,10 0,4 1,7 1,10 1,5 2,9 3,13 2,3 3,7 5,11 2,3 4,6 6,9 2,3 5,6 8,8 3,3 5,5 9,8 3,2 6,4 9,6 4,3 7,5 11,6 4,2 8,4 12,6 4,1 8,3 12,4 5,2 9,3 14,5 4,1 9,2 13,3 5,2 10,3 15,4 5,1 10,2 15,3 5,1 9,2 14,3 5,1 10,2 16,3 5,2 10,3 15,4 5,1 10,2 15,4 5,1 10,2 15,4 5,1 10,2 14,4 5,1 10,3 15,4 5,2 9,4 14,6 4,1 9,3 13,6 4,2 8,4 12,6 4,3 8,5 12,8 3,3 7,6 10,9 4,3 7,6 10,9 3,4 5,7 8,11 3,4 5,8 7,12 2,5 4,9 6,14 2,4 3,9 4,15 1,5 2,11 3,16 0,6 1,12 1,19 0,12 -2,23 -4,34 -2,11 -5,21 -10,31 -4,9 -9,18 -16,26 -7,8 -14,15 -23,22 -9,7 -19,13 -29,18 -11,5 -22,9 -35,12 -12,4 -25,6 -39,8 -14,1 -29,2 -45,2 -7,0 -14,0 -21,0 -7,-1 -14,-2 -21,-2 -6,-1 -13,-2 -19,-4 -6,-1 -13,-3 -19,-4 -6,-2 -12,-4 -17,-6 -6,-3 -12,-5 -17,-8 -5,-2 -10,-5 -15,-8 -5,-4 -10,-7 -14,-11 -5,-3 -9,-7 -13,-11 -4,-4 -7,-8 -11,-13 -3,-4 -7,-9 -9,-14 -3,-5 -6,-10 -9,-15 -2,-5 -4,-11 -6,-17 -2,-5 -4,-11 -5,-18 -1,-6 -2,-12 -3,-19 0,-7 -1,-14 -1,-21l13 0 13 0 12 0 13 0z"/>
  <polygon class="fil0" points="3129,589 3129,458 3129,326 3129,194 3129,63 3142,63 3155,63 3168,63 3181,63 3181,119 3181,176 3181,232 3181,289 3262,289 3343,289 3425,289 3506,289 3506,232 3506,176 3506,119 3506,63 3519,63 3532,63 3545,63 3558,63 3558,194 3558,326 3558,458 3558,589 3545,589 3532,589 3519,589 3506,589 3506,525 3506,460 3506,396 3506,331 3425,331 3343,331 3262,331 3181,331 3181,396 3181,460 3181,525 3181,589 3168,589 3155,589 3142,589 "/>
  <path class="fil0" d="M3658 56l2 0 2 0 2 0 2 0c1,0 2,0 2,0 1,0 2,0 2,0 1,-1 2,-1 2,-1 1,0 2,0 2,0 1,0 1,-1 2,-1 1,0 1,0 2,-1 0,0 1,0 1,0 0,-1 1,-1 1,-2 1,0 1,-1 1,-1 1,-1 1,-1 1,-2 0,0 0,-1 1,-2 0,-1 0,-1 0,-2 0,-1 0,-2 0,-2 -1,-1 -1,-1 -1,-2 0,0 0,-1 0,-1 0,-1 -1,-1 -1,-1 0,-1 0,-1 -1,-2 0,0 0,0 -1,0 0,-1 0,-1 -1,-1 0,0 -1,-1 -1,-1 0,0 -1,0 -1,0 -1,-1 -1,-1 -2,-1 0,0 -1,0 -1,0 0,0 -1,0 -2,0 0,-1 -1,-1 -1,-1 -1,0 -1,0 -2,0 0,0 -1,0 -1,0 -1,0 -1,0 -2,0l-5 0 -5 0 -5 0 -5 0 0 6 0 6 0 6 0 6 4 0 3 0 3 0 3 0zm33 37l-3 0 -2 0 -3 0 -2 0 -5 -8 -5 -7 -5 -8 -5 -8 -4 0 -4 0 -4 0 -4 0 0 8 0 8 0 7 0 8 -2 0 -2 0 -2 0 -2 0 0 -17 0 -16 0 -17 0 -17 7 0 8 0 8 0 7 0c2,0 5,0 7,1 2,0 3,0 5,0 2,1 3,1 4,2 1,1 3,1 3,2 1,1 2,2 3,3 0,1 1,2 2,3 0,1 0,2 1,3 0,1 0,3 0,4 0,1 0,2 0,2 0,1 0,2 -1,2 0,1 0,2 0,2 0,1 -1,2 -1,2 0,1 0,1 -1,2 0,0 0,1 -1,1 0,1 -1,1 -1,2 0,0 -1,1 -1,1 -1,0 -1,1 -2,1 0,0 -1,0 -2,1 0,0 -1,0 -1,0 -1,1 -2,1 -2,1 -1,0 -2,0 -2,0 -1,1 -2,1 -3,1 0,0 -1,0 -2,0 0,0 -1,0 -2,0l5 8 6 8 5 7 5 8zm-31 18c2,0 4,0 6,0 1,0 3,0 5,-1 2,0 3,0 5,-1 2,0 3,-1 5,-2 2,0 3,-1 5,-2 1,-1 2,-1 4,-2 1,-1 3,-2 4,-3 1,-1 2,-2 3,-4 2,-1 3,-2 4,-3 1,-1 2,-3 3,-4 1,-2 1,-3 2,-4 1,-2 2,-3 2,-5 1,-2 2,-3 2,-5 1,-1 1,-3 1,-5 1,-2 1,-3 1,-5 0,-2 0,-4 0,-5 0,-2 0,-4 0,-6 0,-2 0,-3 -1,-5 0,-2 0,-3 -1,-5 0,-2 -1,-3 -2,-5 0,-1 -1,-3 -2,-4 -1,-2 -1,-3 -2,-5 -1,-1 -2,-2 -3,-4 -1,-1 -2,-2 -4,-3 -1,-1 -2,-2 -3,-3 -1,-1 -3,-2 -4,-3 -2,-1 -3,-2 -4,-3 -2,-1 -3,-1 -5,-2 -2,-1 -3,-1 -5,-2 -2,0 -3,-1 -5,-1 -2,0 -4,-1 -5,-1 -2,0 -4,0 -6,0 -2,0 -4,0 -6,0 -1,0 -3,1 -5,1 -2,0 -3,1 -5,1 -2,1 -3,1 -5,2 -2,1 -3,1 -5,2 -1,1 -3,2 -4,3 -1,1 -3,2 -4,3 -1,1 -3,2 -4,3 -1,1 -2,2 -3,3 -1,2 -2,3 -3,4 -1,2 -2,3 -3,5 0,1 -1,3 -2,4 0,2 -1,3 -1,5 -1,2 -1,3 -2,5 0,2 0,3 0,5 -1,2 -1,4 -1,6 0,1 0,3 1,5 0,2 0,3 0,5 1,2 1,4 2,5 0,2 1,3 1,5 1,2 2,3 2,5 1,1 2,2 3,4 1,1 2,3 3,4 1,1 2,2 3,3 1,2 3,3 4,4 1,1 3,2 4,3 1,1 3,1 4,2 2,1 3,2 5,2 2,1 3,2 5,2 2,1 3,1 5,1 2,1 4,1 5,1 2,0 4,0 6,0zm0 8c-2,0 -4,0 -6,0 -3,0 -5,0 -7,-1 -2,0 -4,-1 -6,-1 -2,-1 -3,-2 -5,-2 -2,-1 -4,-2 -6,-3 -2,-1 -3,-2 -5,-3 -2,-1 -3,-2 -5,-3 -1,-2 -3,-3 -4,-4 -2,-2 -3,-3 -4,-4 -1,-2 -3,-3 -4,-5 -1,-2 -2,-3 -3,-5 -1,-2 -2,-3 -3,-5 0,-2 -1,-4 -2,-6 0,-2 -1,-3 -1,-5 -1,-2 -1,-4 -1,-6 0,-2 -1,-4 -1,-6 0,-3 1,-5 1,-7 0,-2 0,-3 1,-5 0,-2 1,-4 1,-6 1,-2 2,-4 2,-6 1,-1 2,-3 3,-5 1,-2 2,-3 3,-5 1,-1 3,-3 4,-4 1,-2 2,-3 4,-5 1,-1 3,-2 4,-3 2,-2 3,-3 5,-4 2,-1 3,-2 5,-3 2,-1 4,-1 6,-2 2,-1 3,-2 5,-2 2,-1 4,-1 6,-2 2,0 4,-1 7,-1 2,0 4,0 6,0 2,0 4,0 6,0 2,0 4,1 6,1 2,1 4,1 6,2 2,0 4,1 6,2 2,1 4,1 6,2 1,1 3,2 5,3 1,1 3,2 5,4 1,1 3,2 4,3 1,2 3,3 4,5 1,1 2,3 4,4 1,2 2,3 3,5 1,2 1,4 2,5 1,2 2,4 2,6 1,2 1,4 2,6 0,2 1,3 1,5 0,2 0,4 0,7 0,2 0,4 0,6 0,2 -1,4 -1,6 -1,2 -1,3 -2,5 0,2 -1,4 -2,6 -1,2 -1,3 -2,5 -1,2 -2,3 -3,5 -2,2 -3,3 -4,5 -1,1 -3,2 -4,4 -1,1 -3,2 -4,4 -2,1 -4,2 -5,3 -2,1 -4,2 -5,3 -2,1 -4,2 -6,3 -2,0 -4,1 -6,2 -2,0 -4,1 -6,1 -2,1 -4,1 -6,1 -2,0 -4,0 -6,0z"/>
 </g>
</svg>
