<svg width="16" height="13" viewBox="0 0 16 13" fill="none" xmlns="http://www.w3.org/2000/svg">
<path d="M1.42016 10.342C0.959822 10.6472 0.834006 11.2677 1.13914 11.728C1.44428 12.1884 2.06482 12.3142 2.52515 12.0091L1.42016 10.342ZM15.4554 3.0868C15.5652 2.54553 15.2154 2.01777 14.6741 1.90803L5.85357 0.119639C5.3123 0.00989382 4.78454 0.359716 4.6748 0.900987C4.56506 1.44226 4.91488 1.97001 5.45615 2.07976L13.2966 3.66944L11.7069 11.5099C11.5972 12.0512 11.947 12.5789 12.4883 12.6887C13.0296 12.7984 13.5573 12.4486 13.6671 11.9073L15.4554 3.0868ZM2.52515 12.0091L15.0279 3.7216L13.9229 2.05457L1.42016 10.342L2.52515 12.0091Z" fill="#3A3330"/>
</svg>
