<svg width="24" height="25" viewBox="0 0 24 25" fill="none" xmlns="http://www.w3.org/2000/svg">
<path d="M17 2.50977H7C4.23858 2.50977 2 4.74834 2 7.50977V17.5098C2 20.2712 4.23858 22.5098 7 22.5098H17C19.7614 22.5098 22 20.2712 22 17.5098V7.50977C22 4.74834 19.7614 2.50977 17 2.50977Z" stroke="white" stroke-width="2" stroke-linecap="round" stroke-linejoin="round"/>
<path d="M15.9997 11.8801C16.1231 12.7123 15.981 13.5623 15.5935 14.3091C15.206 15.0559 14.5929 15.6615 13.8413 16.0397C13.0898 16.418 12.2382 16.5497 11.4075 16.416C10.5768 16.2823 9.80947 15.8901 9.21455 15.2952C8.61962 14.7003 8.22744 13.9329 8.09377 13.1023C7.96011 12.2716 8.09177 11.42 8.47003 10.6684C8.84829 9.91692 9.45389 9.30381 10.2007 8.91631C10.9475 8.52881 11.7975 8.38666 12.6297 8.51007C13.4786 8.63595 14.2646 9.03153 14.8714 9.63837C15.4782 10.2452 15.8738 11.0311 15.9997 11.8801Z" stroke="white" stroke-width="2" stroke-linecap="round" stroke-linejoin="round"/>
<path d="M17.5 7.00977H17.51" stroke="white" stroke-width="2" stroke-linecap="round" stroke-linejoin="round"/>
</svg>
