<svg width="24" height="25" viewBox="0 0 24 25" fill="none" xmlns="http://www.w3.org/2000/svg">
<path d="M16 8.50977C17.5913 8.50977 19.1174 9.14191 20.2426 10.2671C21.3679 11.3923 22 12.9185 22 14.5098V21.5098H18V14.5098C18 13.9793 17.7893 13.4706 17.4142 13.0956C17.0391 12.7205 16.5304 12.5098 16 12.5098C15.4696 12.5098 14.9609 12.7205 14.5858 13.0956C14.2107 13.4706 14 13.9793 14 14.5098V21.5098H10V14.5098C10 12.9185 10.6321 11.3923 11.7574 10.2671C12.8826 9.14191 14.4087 8.50977 16 8.50977Z" stroke="white" stroke-width="2" stroke-linecap="round" stroke-linejoin="round"/>
<path d="M6 9.50977H2V21.5098H6V9.50977Z" stroke="white" stroke-width="2" stroke-linecap="round" stroke-linejoin="round"/>
<path d="M4 6.50977C5.10457 6.50977 6 5.61434 6 4.50977C6 3.4052 5.10457 2.50977 4 2.50977C2.89543 2.50977 2 3.4052 2 4.50977C2 5.61434 2.89543 6.50977 4 6.50977Z" stroke="white" stroke-width="2" stroke-linecap="round" stroke-linejoin="round"/>
</svg>
