<svg width="151" height="43" viewBox="0 0 151 43" fill="none" xmlns="http://www.w3.org/2000/svg">
<path d="M39.6617 31.5C39.555 31.5 39.5017 31.4467 39.5017 31.34L39.5657 9.356C39.5657 9.27067 39.6083 9.228 39.6937 9.228H49.9337C50.0403 9.228 50.0937 9.27067 50.0937 9.356V12.972C50.0937 13.0573 50.051 13.1 49.9657 13.1H43.4057V18.06H49.9657C50.051 18.06 50.0937 18.1133 50.0937 18.22L50.1257 21.836C50.1257 21.9213 50.0723 21.964 49.9657 21.964H43.4057V31.34C43.4057 31.4467 43.3523 31.5 43.2457 31.5H39.6617ZM60.7784 31.82C59.6478 31.82 58.6024 31.532 57.6424 30.956C56.6824 30.3587 55.9144 29.5693 55.3384 28.588C54.7838 27.6067 54.5064 26.5293 54.5064 25.356L54.5704 9.356C54.5704 9.27067 54.6131 9.228 54.6984 9.228H58.2824C58.3678 9.228 58.4104 9.27067 58.4104 9.356V25.356C58.4104 26.0813 58.6344 26.7 59.0824 27.212C59.5518 27.7027 60.1171 27.948 60.7784 27.948C61.4611 27.948 62.0264 27.7027 62.4744 27.212C62.9438 26.7 63.1784 26.0813 63.1784 25.356V9.356C63.1784 9.27067 63.2211 9.228 63.3064 9.228H66.8904C66.9758 9.228 67.0184 9.27067 67.0184 9.356L67.0824 25.356C67.0824 26.5507 66.7944 27.6387 66.2184 28.62C65.6638 29.6013 64.9064 30.38 63.9464 30.956C63.0078 31.532 61.9518 31.82 60.7784 31.82ZM71.6572 31.5C71.5718 31.5 71.5292 31.4467 71.5292 31.34L71.5932 9.356C71.5932 9.27067 71.6358 9.228 71.7212 9.228H78.1852C79.3372 9.228 80.3932 9.516 81.3532 10.092C82.3345 10.6467 83.1132 11.404 83.6892 12.364C84.2652 13.3027 84.5532 14.3693 84.5532 15.564C84.5532 16.3533 84.4358 17.068 84.2012 17.708C83.9665 18.3267 83.6892 18.86 83.3692 19.308C83.0492 19.7347 82.7612 20.0547 82.5052 20.268C83.6572 21.548 84.2332 23.052 84.2332 24.78L84.2652 31.34C84.2652 31.4467 84.2118 31.5 84.1052 31.5H80.4892C80.4038 31.5 80.3612 31.468 80.3612 31.404V24.78C80.3612 24.012 80.0838 23.3507 79.5292 22.796C78.9958 22.22 78.3345 21.932 77.5452 21.932H75.4332L75.4012 31.34C75.4012 31.4467 75.3585 31.5 75.2732 31.5H71.6572ZM75.4332 18.092H78.1852C78.8465 18.092 79.4332 17.8467 79.9452 17.356C80.4572 16.8653 80.7132 16.268 80.7132 15.564C80.7132 14.8813 80.4572 14.2947 79.9452 13.804C79.4545 13.3133 78.8678 13.068 78.1852 13.068H75.4332V18.092ZM89.0147 31.5C88.9293 31.5 88.8867 31.4467 88.8867 31.34L88.9187 9.356C88.9187 9.27067 88.9613 9.228 89.0467 9.228H99.3187C99.404 9.228 99.4467 9.28133 99.4467 9.388V12.972C99.4467 13.0573 99.404 13.1 99.3187 13.1H92.7587V18.092H99.3187C99.404 18.092 99.4467 18.1347 99.4467 18.22L99.4787 21.836C99.4787 21.9213 99.436 21.964 99.3507 21.964H92.7587V27.564H99.3507C99.436 27.564 99.4787 27.6173 99.4787 27.724V31.372C99.4787 31.4573 99.436 31.5 99.3507 31.5H89.0147ZM107.828 31.5C107.743 31.5 107.69 31.4467 107.668 31.34L103.252 9.356C103.231 9.27067 103.274 9.228 103.38 9.228H106.996C107.082 9.228 107.135 9.27067 107.156 9.356L109.78 24.012L112.34 9.356C112.362 9.27067 112.415 9.228 112.5 9.228H116.084C116.191 9.228 116.234 9.27067 116.212 9.356L111.86 31.34C111.839 31.4467 111.786 31.5 111.7 31.5H107.828ZM120.136 31.5C120.051 31.5 120.008 31.4467 120.008 31.34L120.04 9.356C120.04 9.27067 120.083 9.228 120.168 9.228H130.44C130.525 9.228 130.568 9.28133 130.568 9.388V12.972C130.568 13.0573 130.525 13.1 130.44 13.1H123.88V18.092H130.44C130.525 18.092 130.568 18.1347 130.568 18.22L130.6 21.836C130.6 21.9213 130.557 21.964 130.472 21.964H123.88V27.564H130.472C130.557 27.564 130.6 27.6173 130.6 27.724V31.372C130.6 31.4573 130.557 31.5 130.472 31.5H120.136ZM135.493 31.5C135.408 31.5 135.365 31.4467 135.365 31.34L135.429 9.356C135.429 9.27067 135.472 9.228 135.557 9.228H142.021C143.173 9.228 144.229 9.516 145.189 10.092C146.171 10.6467 146.949 11.404 147.525 12.364C148.101 13.3027 148.389 14.3693 148.389 15.564C148.389 16.3533 148.272 17.068 148.037 17.708C147.803 18.3267 147.525 18.86 147.205 19.308C146.885 19.7347 146.597 20.0547 146.341 20.268C147.493 21.548 148.069 23.052 148.069 24.78L148.101 31.34C148.101 31.4467 148.048 31.5 147.941 31.5H144.325C144.24 31.5 144.197 31.468 144.197 31.404V24.78C144.197 24.012 143.92 23.3507 143.365 22.796C142.832 22.22 142.171 21.932 141.381 21.932H139.269L139.237 31.34C139.237 31.4467 139.195 31.5 139.109 31.5H135.493ZM139.269 18.092H142.021C142.683 18.092 143.269 17.8467 143.781 17.356C144.293 16.8653 144.549 16.268 144.549 15.564C144.549 14.8813 144.293 14.2947 143.781 13.804C143.291 13.3133 142.704 13.068 142.021 13.068H139.269V18.092Z" fill="#F69946"/>
<path d="M19.2063 18.601C16.1822 18.5755 15.3853 21.3792 12.567 23.8583C8.43257 27.4957 9.08379 30.7959 11.5146 31.5601C13.9457 32.3244 16.1309 29.6293 18.7925 29.7744C18.8006 29.7748 18.809 29.7754 18.8171 29.7758C18.8253 29.7759 18.8336 29.7758 18.8419 29.776C21.5072 29.8162 23.4998 32.6569 25.978 32.0633C28.4562 31.4698 29.3353 28.2227 25.4637 24.3069C22.8246 21.6381 22.2249 18.7858 19.2063 18.601Z" fill="#3A3330"/>
<path d="M11.9916 16.1068C13.5827 18.4626 13.6416 21.2039 12.1229 22.2294C10.6043 23.2553 8.08322 22.1771 6.49177 19.8215C4.9007 17.4657 4.8417 14.7247 6.36052 13.6989C7.87971 12.673 10.4005 13.7511 11.9916 16.1068Z" fill="#3A3330"/>
<path d="M26.5757 16.6143C24.8247 18.8538 24.5754 21.5842 26.0191 22.7131C27.4628 23.8419 30.0527 22.9417 31.8038 20.7022C33.5548 18.4627 33.8039 15.7322 32.3604 14.6035C30.9167 13.4746 28.3267 14.3751 26.5757 16.6143Z" fill="#3A3330"/>
<path d="M18.7007 10.5526C19.1234 13.5206 17.9148 16.1476 16.0016 16.42C14.0883 16.6926 12.1946 14.5075 11.7718 11.5395C11.3492 8.57127 12.5578 5.94484 14.4711 5.67225C16.3842 5.39954 18.2779 7.5846 18.7007 10.5526Z" fill="#3A3330"/>
<path d="M20.2657 10.6072C19.6377 13.5385 20.6607 16.2433 22.5504 16.6479C24.4402 17.0528 26.4813 15.0045 27.1091 12.0731C27.7368 9.14158 26.714 6.43691 24.8241 6.03225C22.9344 5.62771 20.8936 7.67607 20.2657 10.6072Z" fill="#3A3330"/>
</svg>
